<mxfile host="app.diagrams.net" agent="Mozilla/5.0 (Windows NT 10.0; Win64; x64) AppleWebKit/537.36 (KHTML, like Gecko) Chrome/130.0.0.0 Safari/537.36" version="24.8.3">
  <diagram name="Pagina-1" id="zBFYCe5BBtL1x1ClUltB">
    <mxGraphModel dx="714" dy="374" grid="1" gridSize="10" guides="1" tooltips="1" connect="1" arrows="1" fold="1" page="1" pageScale="1" pageWidth="827" pageHeight="1169" math="0" shadow="0">
      <root>
        <mxCell id="0" />
        <mxCell id="1" parent="0" />
        <mxCell id="_zq4uGwuyrluYTI04g53-21" value="" style="group;fillColor=#b0e3e6;strokeColor=#0e8088;" vertex="1" connectable="0" parent="1">
          <mxGeometry x="120" y="220" width="120" height="40" as="geometry" />
        </mxCell>
        <mxCell id="_zq4uGwuyrluYTI04g53-16" value="" style="whiteSpace=wrap;html=1;aspect=fixed;fillColor=none;" vertex="1" parent="_zq4uGwuyrluYTI04g53-21">
          <mxGeometry width="40" height="40" as="geometry" />
        </mxCell>
        <mxCell id="_zq4uGwuyrluYTI04g53-18" value="M1" style="whiteSpace=wrap;html=1;aspect=fixed;fillColor=none;" vertex="1" parent="_zq4uGwuyrluYTI04g53-21">
          <mxGeometry x="40" width="40" height="40" as="geometry" />
        </mxCell>
        <mxCell id="_zq4uGwuyrluYTI04g53-19" value="y11" style="whiteSpace=wrap;html=1;aspect=fixed;fillColor=none;" vertex="1" parent="_zq4uGwuyrluYTI04g53-21">
          <mxGeometry x="80" width="40" height="40" as="geometry" />
        </mxCell>
        <mxCell id="_zq4uGwuyrluYTI04g53-28" value="" style="group;fillColor=#d0cee2;strokeColor=#56517e;" vertex="1" connectable="0" parent="1">
          <mxGeometry x="320" y="220" width="120" height="120" as="geometry" />
        </mxCell>
        <mxCell id="_zq4uGwuyrluYTI04g53-20" value="u31" style="whiteSpace=wrap;html=1;aspect=fixed;fillColor=#d0cee2;strokeColor=#56517e;" vertex="1" parent="_zq4uGwuyrluYTI04g53-28">
          <mxGeometry width="40" height="40" as="geometry" />
        </mxCell>
        <mxCell id="_zq4uGwuyrluYTI04g53-22" value="u32" style="whiteSpace=wrap;html=1;aspect=fixed;fillColor=#d0cee2;strokeColor=#56517e;" vertex="1" parent="_zq4uGwuyrluYTI04g53-28">
          <mxGeometry y="40" width="40" height="40" as="geometry" />
        </mxCell>
        <mxCell id="_zq4uGwuyrluYTI04g53-23" value="u32" style="whiteSpace=wrap;html=1;aspect=fixed;fillColor=#d0cee2;strokeColor=#56517e;" vertex="1" parent="_zq4uGwuyrluYTI04g53-28">
          <mxGeometry y="80" width="40" height="40" as="geometry" />
        </mxCell>
        <mxCell id="_zq4uGwuyrluYTI04g53-25" value="M3" style="rounded=0;whiteSpace=wrap;html=1;fillColor=#d0cee2;strokeColor=#56517e;" vertex="1" parent="_zq4uGwuyrluYTI04g53-28">
          <mxGeometry x="40" width="40" height="120" as="geometry" />
        </mxCell>
        <mxCell id="_zq4uGwuyrluYTI04g53-26" value="y31" style="rounded=0;whiteSpace=wrap;html=1;fillColor=#d0cee2;strokeColor=#56517e;" vertex="1" parent="_zq4uGwuyrluYTI04g53-28">
          <mxGeometry x="80" width="40" height="60" as="geometry" />
        </mxCell>
        <mxCell id="_zq4uGwuyrluYTI04g53-27" value="y32" style="rounded=0;whiteSpace=wrap;html=1;fillColor=#d0cee2;strokeColor=#56517e;" vertex="1" parent="_zq4uGwuyrluYTI04g53-28">
          <mxGeometry x="80" y="60" width="40" height="60" as="geometry" />
        </mxCell>
        <mxCell id="_zq4uGwuyrluYTI04g53-29" value="" style="group;fillColor=#fad9d5;strokeColor=#ae4132;" vertex="1" connectable="0" parent="1">
          <mxGeometry x="520" y="220" width="120" height="40" as="geometry" />
        </mxCell>
        <mxCell id="_zq4uGwuyrluYTI04g53-30" value="u41" style="whiteSpace=wrap;html=1;aspect=fixed;fillColor=#fad9d5;strokeColor=#ae4132;" vertex="1" parent="_zq4uGwuyrluYTI04g53-29">
          <mxGeometry width="40" height="40" as="geometry" />
        </mxCell>
        <mxCell id="_zq4uGwuyrluYTI04g53-31" value="M4" style="whiteSpace=wrap;html=1;aspect=fixed;fillColor=#fad9d5;strokeColor=#ae4132;" vertex="1" parent="_zq4uGwuyrluYTI04g53-29">
          <mxGeometry x="40" width="40" height="40" as="geometry" />
        </mxCell>
        <mxCell id="_zq4uGwuyrluYTI04g53-32" value="y41" style="whiteSpace=wrap;html=1;aspect=fixed;fillColor=#fad9d5;strokeColor=#ae4132;" vertex="1" parent="_zq4uGwuyrluYTI04g53-29">
          <mxGeometry x="80" width="40" height="40" as="geometry" />
        </mxCell>
        <mxCell id="_zq4uGwuyrluYTI04g53-33" value="" style="group;fillColor=#bac8d3;strokeColor=#23445d;" vertex="1" connectable="0" parent="1">
          <mxGeometry x="520" y="300" width="120" height="40" as="geometry" />
        </mxCell>
        <mxCell id="_zq4uGwuyrluYTI04g53-34" value="u21" style="whiteSpace=wrap;html=1;aspect=fixed;fillColor=#bac8d3;strokeColor=#23445d;" vertex="1" parent="_zq4uGwuyrluYTI04g53-33">
          <mxGeometry width="40" height="40" as="geometry" />
        </mxCell>
        <mxCell id="_zq4uGwuyrluYTI04g53-35" value="M2" style="whiteSpace=wrap;html=1;aspect=fixed;fillColor=#bac8d3;strokeColor=#23445d;" vertex="1" parent="_zq4uGwuyrluYTI04g53-33">
          <mxGeometry x="40" width="40" height="40" as="geometry" />
        </mxCell>
        <mxCell id="_zq4uGwuyrluYTI04g53-36" value="y21" style="whiteSpace=wrap;html=1;aspect=fixed;fillColor=#bac8d3;strokeColor=#23445d;" vertex="1" parent="_zq4uGwuyrluYTI04g53-33">
          <mxGeometry x="80" width="40" height="40" as="geometry" />
        </mxCell>
        <mxCell id="_zq4uGwuyrluYTI04g53-37" style="edgeStyle=orthogonalEdgeStyle;rounded=0;orthogonalLoop=1;jettySize=auto;html=1;entryX=0;entryY=0.5;entryDx=0;entryDy=0;fillColor=#b0e3e6;strokeColor=#0e8088;" edge="1" parent="1" source="_zq4uGwuyrluYTI04g53-19" target="_zq4uGwuyrluYTI04g53-20">
          <mxGeometry relative="1" as="geometry" />
        </mxCell>
        <mxCell id="_zq4uGwuyrluYTI04g53-38" style="edgeStyle=orthogonalEdgeStyle;rounded=1;orthogonalLoop=1;jettySize=auto;html=1;entryX=0;entryY=0.5;entryDx=0;entryDy=0;curved=0;fillColor=#d0cee2;strokeColor=#56517e;" edge="1" parent="1" source="_zq4uGwuyrluYTI04g53-26" target="_zq4uGwuyrluYTI04g53-30">
          <mxGeometry relative="1" as="geometry" />
        </mxCell>
        <mxCell id="_zq4uGwuyrluYTI04g53-39" style="edgeStyle=orthogonalEdgeStyle;rounded=1;orthogonalLoop=1;jettySize=auto;html=1;entryX=0;entryY=0.5;entryDx=0;entryDy=0;curved=0;fillColor=#d0cee2;strokeColor=#56517e;" edge="1" parent="1" source="_zq4uGwuyrluYTI04g53-27" target="_zq4uGwuyrluYTI04g53-34">
          <mxGeometry relative="1" as="geometry" />
        </mxCell>
        <mxCell id="_zq4uGwuyrluYTI04g53-40" style="edgeStyle=orthogonalEdgeStyle;rounded=1;orthogonalLoop=1;jettySize=auto;html=1;entryX=0;entryY=0.5;entryDx=0;entryDy=0;curved=0;fillColor=#bac8d3;strokeColor=#23445d;" edge="1" parent="1" source="_zq4uGwuyrluYTI04g53-36" target="_zq4uGwuyrluYTI04g53-23">
          <mxGeometry relative="1" as="geometry">
            <Array as="points">
              <mxPoint x="670" y="320" />
              <mxPoint x="670" y="370" />
              <mxPoint x="280" y="370" />
              <mxPoint x="280" y="320" />
            </Array>
          </mxGeometry>
        </mxCell>
        <mxCell id="_zq4uGwuyrluYTI04g53-41" style="edgeStyle=orthogonalEdgeStyle;rounded=1;orthogonalLoop=1;jettySize=auto;html=1;entryX=0;entryY=0.5;entryDx=0;entryDy=0;curved=0;fillColor=#fad9d5;strokeColor=#ae4132;" edge="1" parent="1" source="_zq4uGwuyrluYTI04g53-32" target="_zq4uGwuyrluYTI04g53-22">
          <mxGeometry relative="1" as="geometry">
            <Array as="points">
              <mxPoint x="670" y="240" />
              <mxPoint x="670" y="180" />
              <mxPoint x="280" y="180" />
              <mxPoint x="280" y="280" />
            </Array>
          </mxGeometry>
        </mxCell>
      </root>
    </mxGraphModel>
  </diagram>
</mxfile>
